<mxfile host="app.diagrams.net" agent="Mozilla/5.0 (Windows NT 10.0; Win64; x64) AppleWebKit/537.36 (KHTML, like Gecko) Chrome/136.0.0.0 Safari/537.36 Edg/136.0.0.0" version="26.2.14">
  <diagram name="Página-1" id="SSGQaP6CWcNV6FheJbuD">
    <mxGraphModel grid="1" page="1" gridSize="10" guides="1" tooltips="1" connect="1" arrows="1" fold="1" pageScale="1" pageWidth="827" pageHeight="1169" math="0" shadow="0">
      <root>
        <mxCell id="0" />
        <mxCell id="1" parent="0" />
        <mxCell id="MGQm8jBEoG8g0ZLbulO0-1" value="Usuário" style="shape=umlActor;verticalLabelPosition=bottom;verticalAlign=top;html=1;outlineConnect=0;" vertex="1" parent="1">
          <mxGeometry x="100" y="-705" width="30" height="60" as="geometry" />
        </mxCell>
        <mxCell id="MGQm8jBEoG8g0ZLbulO0-8" style="edgeStyle=orthogonalEdgeStyle;rounded=0;orthogonalLoop=1;jettySize=auto;html=1;exitX=0;exitY=0.5;exitDx=0;exitDy=0;endArrow=none;startFill=0;" edge="1" parent="1" source="MGQm8jBEoG8g0ZLbulO0-4">
          <mxGeometry relative="1" as="geometry">
            <mxPoint x="150" y="-670" as="targetPoint" />
          </mxGeometry>
        </mxCell>
        <mxCell id="MGQm8jBEoG8g0ZLbulO0-4" value="Configurar Nova Batalha" style="ellipse;whiteSpace=wrap;html=1;" vertex="1" parent="1">
          <mxGeometry x="290" y="-690" width="100" height="40" as="geometry" />
        </mxCell>
        <mxCell id="MGQm8jBEoG8g0ZLbulO0-9" value="Selecionar Grupo de Personagens" style="ellipse;whiteSpace=wrap;html=1;" vertex="1" parent="1">
          <mxGeometry x="540" y="-800" width="110" height="50" as="geometry" />
        </mxCell>
        <mxCell id="MGQm8jBEoG8g0ZLbulO0-10" value="Selecionar Grupo de Inimigos" style="ellipse;whiteSpace=wrap;html=1;" vertex="1" parent="1">
          <mxGeometry x="540" y="-695" width="110" height="50" as="geometry" />
        </mxCell>
        <mxCell id="MGQm8jBEoG8g0ZLbulO0-11" value="Selecionar Cenário" style="ellipse;whiteSpace=wrap;html=1;" vertex="1" parent="1">
          <mxGeometry x="540" y="-590" width="110" height="50" as="geometry" />
        </mxCell>
        <mxCell id="MGQm8jBEoG8g0ZLbulO0-13" value="" style="endArrow=classic;dashed=1;html=1;dashPattern=1 3;strokeWidth=2;rounded=0;entryX=0;entryY=0.5;entryDx=0;entryDy=0;exitX=0.5;exitY=0;exitDx=0;exitDy=0;endFill=1;" edge="1" parent="1" source="MGQm8jBEoG8g0ZLbulO0-4" target="MGQm8jBEoG8g0ZLbulO0-9">
          <mxGeometry width="50" height="50" relative="1" as="geometry">
            <mxPoint x="370" y="-690" as="sourcePoint" />
            <mxPoint x="420" y="-740" as="targetPoint" />
          </mxGeometry>
        </mxCell>
        <mxCell id="MGQm8jBEoG8g0ZLbulO0-14" value="&amp;lt;&amp;lt;include&amp;gt;&amp;gt;" style="edgeLabel;html=1;align=center;verticalAlign=middle;resizable=0;points=[];" vertex="1" connectable="0" parent="MGQm8jBEoG8g0ZLbulO0-13">
          <mxGeometry x="0.1314" y="1" relative="1" as="geometry">
            <mxPoint as="offset" />
          </mxGeometry>
        </mxCell>
        <mxCell id="MGQm8jBEoG8g0ZLbulO0-15" value="" style="endArrow=classic;dashed=1;html=1;dashPattern=1 3;strokeWidth=2;rounded=0;entryX=0;entryY=0.5;entryDx=0;entryDy=0;exitX=1;exitY=0.5;exitDx=0;exitDy=0;endFill=1;" edge="1" parent="1" source="MGQm8jBEoG8g0ZLbulO0-4" target="MGQm8jBEoG8g0ZLbulO0-10">
          <mxGeometry width="50" height="50" relative="1" as="geometry">
            <mxPoint x="350" y="-680" as="sourcePoint" />
            <mxPoint x="460" y="-745" as="targetPoint" />
          </mxGeometry>
        </mxCell>
        <mxCell id="MGQm8jBEoG8g0ZLbulO0-16" value="&amp;lt;&amp;lt;include&amp;gt;&amp;gt;" style="edgeLabel;html=1;align=center;verticalAlign=middle;resizable=0;points=[];" vertex="1" connectable="0" parent="MGQm8jBEoG8g0ZLbulO0-15">
          <mxGeometry x="0.1314" y="1" relative="1" as="geometry">
            <mxPoint as="offset" />
          </mxGeometry>
        </mxCell>
        <mxCell id="MGQm8jBEoG8g0ZLbulO0-17" value="" style="endArrow=classic;dashed=1;html=1;dashPattern=1 3;strokeWidth=2;rounded=0;entryX=0;entryY=0.5;entryDx=0;entryDy=0;exitX=0.5;exitY=1;exitDx=0;exitDy=0;endFill=1;" edge="1" parent="1" source="MGQm8jBEoG8g0ZLbulO0-4" target="MGQm8jBEoG8g0ZLbulO0-11">
          <mxGeometry width="50" height="50" relative="1" as="geometry">
            <mxPoint x="400" y="-660" as="sourcePoint" />
            <mxPoint x="550" y="-660" as="targetPoint" />
          </mxGeometry>
        </mxCell>
        <mxCell id="MGQm8jBEoG8g0ZLbulO0-18" value="&amp;lt;&amp;lt;include&amp;gt;&amp;gt;" style="edgeLabel;html=1;align=center;verticalAlign=middle;resizable=0;points=[];" vertex="1" connectable="0" parent="MGQm8jBEoG8g0ZLbulO0-17">
          <mxGeometry x="0.1314" y="1" relative="1" as="geometry">
            <mxPoint as="offset" />
          </mxGeometry>
        </mxCell>
        <mxCell id="MGQm8jBEoG8g0ZLbulO0-24" style="rounded=0;orthogonalLoop=1;jettySize=auto;html=1;exitX=0;exitY=0.5;exitDx=0;exitDy=0;endArrow=none;startFill=0;" edge="1" parent="1" source="MGQm8jBEoG8g0ZLbulO0-22">
          <mxGeometry relative="1" as="geometry">
            <mxPoint x="150" y="-670" as="targetPoint" />
          </mxGeometry>
        </mxCell>
        <mxCell id="MGQm8jBEoG8g0ZLbulO0-22" value="Criar Grupo de Personagens" style="ellipse;whiteSpace=wrap;html=1;" vertex="1" parent="1">
          <mxGeometry x="150" y="-515" width="110" height="50" as="geometry" />
        </mxCell>
        <mxCell id="MGQm8jBEoG8g0ZLbulO0-25" value="Selecionar Personagem" style="ellipse;whiteSpace=wrap;html=1;" vertex="1" parent="1">
          <mxGeometry x="150" y="-375" width="110" height="50" as="geometry" />
        </mxCell>
        <mxCell id="MGQm8jBEoG8g0ZLbulO0-26" value="" style="endArrow=classic;dashed=1;html=1;dashPattern=1 3;strokeWidth=2;rounded=0;entryX=0.5;entryY=0;entryDx=0;entryDy=0;exitX=0.5;exitY=1;exitDx=0;exitDy=0;endFill=1;" edge="1" parent="1" source="MGQm8jBEoG8g0ZLbulO0-22" target="MGQm8jBEoG8g0ZLbulO0-25">
          <mxGeometry width="50" height="50" relative="1" as="geometry">
            <mxPoint x="215" y="-595" as="sourcePoint" />
            <mxPoint x="415" y="-510" as="targetPoint" />
          </mxGeometry>
        </mxCell>
        <mxCell id="MGQm8jBEoG8g0ZLbulO0-27" value="&amp;lt;&amp;lt;include&amp;gt;&amp;gt;" style="edgeLabel;html=1;align=center;verticalAlign=middle;resizable=0;points=[];" vertex="1" connectable="0" parent="MGQm8jBEoG8g0ZLbulO0-26">
          <mxGeometry x="0.1314" y="1" relative="1" as="geometry">
            <mxPoint as="offset" />
          </mxGeometry>
        </mxCell>
        <mxCell id="MGQm8jBEoG8g0ZLbulO0-31" style="rounded=0;orthogonalLoop=1;jettySize=auto;html=1;exitX=0;exitY=0.5;exitDx=0;exitDy=0;endArrow=none;startFill=0;" edge="1" parent="1" source="MGQm8jBEoG8g0ZLbulO0-32">
          <mxGeometry relative="1" as="geometry">
            <mxPoint x="150" y="-670" as="targetPoint" />
          </mxGeometry>
        </mxCell>
        <mxCell id="MGQm8jBEoG8g0ZLbulO0-32" value="Criar Grupo de Inimigos" style="ellipse;whiteSpace=wrap;html=1;" vertex="1" parent="1">
          <mxGeometry x="289" y="-515" width="110" height="50" as="geometry" />
        </mxCell>
        <mxCell id="MGQm8jBEoG8g0ZLbulO0-33" value="Selecionar Inimigo" style="ellipse;whiteSpace=wrap;html=1;" vertex="1" parent="1">
          <mxGeometry x="290" y="-375" width="110" height="50" as="geometry" />
        </mxCell>
        <mxCell id="MGQm8jBEoG8g0ZLbulO0-34" value="" style="endArrow=classic;dashed=1;html=1;dashPattern=1 3;strokeWidth=2;rounded=0;entryX=0.5;entryY=0;entryDx=0;entryDy=0;exitX=0.5;exitY=1;exitDx=0;exitDy=0;endFill=1;" edge="1" parent="1" source="MGQm8jBEoG8g0ZLbulO0-32" target="MGQm8jBEoG8g0ZLbulO0-33">
          <mxGeometry width="50" height="50" relative="1" as="geometry">
            <mxPoint x="354" y="-600" as="sourcePoint" />
            <mxPoint x="554" y="-515" as="targetPoint" />
          </mxGeometry>
        </mxCell>
        <mxCell id="MGQm8jBEoG8g0ZLbulO0-35" value="&amp;lt;&amp;lt;include&amp;gt;&amp;gt;" style="edgeLabel;html=1;align=center;verticalAlign=middle;resizable=0;points=[];" vertex="1" connectable="0" parent="MGQm8jBEoG8g0ZLbulO0-34">
          <mxGeometry x="0.1314" y="1" relative="1" as="geometry">
            <mxPoint as="offset" />
          </mxGeometry>
        </mxCell>
        <mxCell id="I0oyDSxSCbBd7wxzQqsA-7" value="Gerenciar Grupo de Personagens" style="ellipse;whiteSpace=wrap;html=1;" vertex="1" parent="1">
          <mxGeometry x="310" y="-1010" width="100" height="40" as="geometry" />
        </mxCell>
        <mxCell id="I0oyDSxSCbBd7wxzQqsA-8" value="Gerenciar Personagens" style="ellipse;whiteSpace=wrap;html=1;" vertex="1" parent="1">
          <mxGeometry x="484" y="-980" width="101" height="40" as="geometry" />
        </mxCell>
        <mxCell id="I0oyDSxSCbBd7wxzQqsA-9" value="Gerenciar Grupo de Inimigos" style="ellipse;whiteSpace=wrap;html=1;" vertex="1" parent="1">
          <mxGeometry x="310" y="-940" width="100" height="40" as="geometry" />
        </mxCell>
        <mxCell id="I0oyDSxSCbBd7wxzQqsA-13" value="Gerenciar Inimigos" style="ellipse;whiteSpace=wrap;html=1;" vertex="1" parent="1">
          <mxGeometry x="485" y="-910" width="100" height="40" as="geometry" />
        </mxCell>
        <mxCell id="I0oyDSxSCbBd7wxzQqsA-16" style="edgeStyle=orthogonalEdgeStyle;rounded=0;orthogonalLoop=1;jettySize=auto;html=1;endArrow=none;startFill=0;exitX=0;exitY=0.5;exitDx=0;exitDy=0;" edge="1" parent="1">
          <mxGeometry relative="1" as="geometry">
            <mxPoint x="483.9999999999999" y="-890.03" as="sourcePoint" />
            <mxPoint x="150" y="-670" as="targetPoint" />
            <Array as="points">
              <mxPoint x="150" y="-890.03" />
              <mxPoint x="150" y="-670.03" />
            </Array>
          </mxGeometry>
        </mxCell>
        <mxCell id="kMfSdA79UcX3Tjc2b9ED-3" value="Usuário" style="shape=umlActor;verticalLabelPosition=bottom;verticalAlign=top;html=1;outlineConnect=0;" vertex="1" parent="1">
          <mxGeometry x="760" y="-705" width="30" height="60" as="geometry" />
        </mxCell>
        <mxCell id="kMfSdA79UcX3Tjc2b9ED-4" value="Criar Ficha de Personagem" style="ellipse;whiteSpace=wrap;html=1;" vertex="1" parent="1">
          <mxGeometry x="910" y="-810" width="110" height="50" as="geometry" />
        </mxCell>
        <mxCell id="kMfSdA79UcX3Tjc2b9ED-5" value="" style="rounded=0;orthogonalLoop=1;jettySize=auto;html=1;exitX=0;exitY=0.5;exitDx=0;exitDy=0;endArrow=none;startFill=0;" edge="1" parent="1" source="kMfSdA79UcX3Tjc2b9ED-4">
          <mxGeometry relative="1" as="geometry">
            <mxPoint x="950" y="625" as="sourcePoint" />
            <mxPoint x="810" y="-670" as="targetPoint" />
            <Array as="points">
              <mxPoint x="810" y="-785" />
            </Array>
          </mxGeometry>
        </mxCell>
        <mxCell id="kMfSdA79UcX3Tjc2b9ED-6" value="Criar Ficha de Inimigo" style="ellipse;whiteSpace=wrap;html=1;" vertex="1" parent="1">
          <mxGeometry x="910" y="-700" width="110" height="50" as="geometry" />
        </mxCell>
        <mxCell id="kMfSdA79UcX3Tjc2b9ED-7" style="rounded=0;orthogonalLoop=1;jettySize=auto;html=1;exitX=0;exitY=0.5;exitDx=0;exitDy=0;endArrow=none;startFill=0;" edge="1" parent="1" source="kMfSdA79UcX3Tjc2b9ED-6">
          <mxGeometry relative="1" as="geometry">
            <mxPoint x="1080" y="625" as="sourcePoint" />
            <mxPoint x="810" y="-675" as="targetPoint" />
            <Array as="points" />
          </mxGeometry>
        </mxCell>
        <mxCell id="kMfSdA79UcX3Tjc2b9ED-8" value="Definir Raça" style="ellipse;whiteSpace=wrap;html=1;" vertex="1" parent="1">
          <mxGeometry x="1220" y="-810" width="110" height="50" as="geometry" />
        </mxCell>
        <mxCell id="kMfSdA79UcX3Tjc2b9ED-9" value="Definir Classe" style="ellipse;whiteSpace=wrap;html=1;" vertex="1" parent="1">
          <mxGeometry x="1220" y="-740" width="110" height="50" as="geometry" />
        </mxCell>
        <mxCell id="kMfSdA79UcX3Tjc2b9ED-10" value="Definir Arquétipo" style="ellipse;whiteSpace=wrap;html=1;" vertex="1" parent="1">
          <mxGeometry x="1220" y="-670" width="110" height="50" as="geometry" />
        </mxCell>
        <mxCell id="kMfSdA79UcX3Tjc2b9ED-11" value="Definir Nível Inicial" style="ellipse;whiteSpace=wrap;html=1;" vertex="1" parent="1">
          <mxGeometry x="1220" y="-600" width="110" height="50" as="geometry" />
        </mxCell>
        <mxCell id="kMfSdA79UcX3Tjc2b9ED-12" value="Distribuir Atributos" style="ellipse;whiteSpace=wrap;html=1;" vertex="1" parent="1">
          <mxGeometry x="1220" y="-530" width="110" height="50" as="geometry" />
        </mxCell>
        <mxCell id="kMfSdA79UcX3Tjc2b9ED-13" value="Definir Equipamentos" style="ellipse;whiteSpace=wrap;html=1;" vertex="1" parent="1">
          <mxGeometry x="1220" y="-460" width="110" height="50" as="geometry" />
        </mxCell>
        <mxCell id="kMfSdA79UcX3Tjc2b9ED-14" value="Atribuir Descrição" style="ellipse;whiteSpace=wrap;html=1;" vertex="1" parent="1">
          <mxGeometry x="1220" y="-391" width="110" height="50" as="geometry" />
        </mxCell>
        <mxCell id="kMfSdA79UcX3Tjc2b9ED-15" value="" style="endArrow=classic;dashed=1;html=1;dashPattern=1 3;strokeWidth=2;rounded=0;exitX=1;exitY=0.5;exitDx=0;exitDy=0;endFill=1;entryX=0;entryY=0.5;entryDx=0;entryDy=0;" edge="1" parent="1" source="kMfSdA79UcX3Tjc2b9ED-4" target="kMfSdA79UcX3Tjc2b9ED-14">
          <mxGeometry width="50" height="50" relative="1" as="geometry">
            <mxPoint x="918.95" y="-780" as="sourcePoint" />
            <mxPoint x="1070" y="-780" as="targetPoint" />
            <Array as="points">
              <mxPoint x="1090" y="-785" />
              <mxPoint x="1090" y="-580" />
              <mxPoint x="1090" y="-366" />
            </Array>
          </mxGeometry>
        </mxCell>
        <mxCell id="I0oyDSxSCbBd7wxzQqsA-21" value="Gerenciar Andamento da Batalha" style="ellipse;whiteSpace=wrap;html=1;" vertex="1" parent="1">
          <mxGeometry x="280" y="-850" width="120" height="50" as="geometry" />
        </mxCell>
        <mxCell id="kMfSdA79UcX3Tjc2b9ED-19" value="" style="endArrow=classic;dashed=1;html=1;dashPattern=1 3;strokeWidth=2;rounded=0;entryX=0;entryY=0.5;entryDx=0;entryDy=0;exitX=1;exitY=0.5;exitDx=0;exitDy=0;endFill=1;" edge="1" parent="1" source="kMfSdA79UcX3Tjc2b9ED-4" target="kMfSdA79UcX3Tjc2b9ED-8">
          <mxGeometry width="50" height="50" relative="1" as="geometry">
            <mxPoint x="1044" y="-1010" as="sourcePoint" />
            <mxPoint x="1045" y="-920" as="targetPoint" />
          </mxGeometry>
        </mxCell>
        <mxCell id="kMfSdA79UcX3Tjc2b9ED-20" value="&amp;lt;&amp;lt;include&amp;gt;&amp;gt;" style="edgeLabel;html=1;align=center;verticalAlign=middle;resizable=0;points=[];" vertex="1" connectable="0" parent="kMfSdA79UcX3Tjc2b9ED-19">
          <mxGeometry x="0.1314" y="1" relative="1" as="geometry">
            <mxPoint x="-14" y="1" as="offset" />
          </mxGeometry>
        </mxCell>
        <mxCell id="kMfSdA79UcX3Tjc2b9ED-21" value="" style="endArrow=classic;dashed=1;html=1;dashPattern=1 3;strokeWidth=2;rounded=0;entryX=0;entryY=0.5;entryDx=0;entryDy=0;endFill=1;" edge="1" parent="1" target="kMfSdA79UcX3Tjc2b9ED-9">
          <mxGeometry width="50" height="50" relative="1" as="geometry">
            <mxPoint x="1090" y="-715" as="sourcePoint" />
            <mxPoint x="1200" y="-710" as="targetPoint" />
          </mxGeometry>
        </mxCell>
        <mxCell id="I0oyDSxSCbBd7wxzQqsA-22" style="rounded=0;orthogonalLoop=1;jettySize=auto;html=1;exitX=0;exitY=0.5;exitDx=0;exitDy=0;endArrow=none;startFill=0;" edge="1" parent="1" source="I0oyDSxSCbBd7wxzQqsA-21">
          <mxGeometry relative="1" as="geometry">
            <mxPoint x="150" y="-670" as="targetPoint" />
          </mxGeometry>
        </mxCell>
        <mxCell id="kMfSdA79UcX3Tjc2b9ED-23" value="" style="endArrow=classic;dashed=1;html=1;dashPattern=1 3;strokeWidth=2;rounded=0;entryX=0;entryY=0.5;entryDx=0;entryDy=0;endFill=1;" edge="1" parent="1">
          <mxGeometry width="50" height="50" relative="1" as="geometry">
            <mxPoint x="1090" y="-575.53" as="sourcePoint" />
            <mxPoint x="1220" y="-575.53" as="targetPoint" />
          </mxGeometry>
        </mxCell>
        <mxCell id="kMfSdA79UcX3Tjc2b9ED-24" value="" style="endArrow=classic;dashed=1;html=1;dashPattern=1 3;strokeWidth=2;rounded=0;entryX=0;entryY=0.5;entryDx=0;entryDy=0;endFill=1;" edge="1" parent="1">
          <mxGeometry width="50" height="50" relative="1" as="geometry">
            <mxPoint x="1089" y="-505.53" as="sourcePoint" />
            <mxPoint x="1219" y="-505.53" as="targetPoint" />
          </mxGeometry>
        </mxCell>
        <mxCell id="kMfSdA79UcX3Tjc2b9ED-25" value="" style="endArrow=classic;dashed=1;html=1;dashPattern=1 3;strokeWidth=2;rounded=0;entryX=0;entryY=0.5;entryDx=0;entryDy=0;endFill=1;" edge="1" parent="1">
          <mxGeometry width="50" height="50" relative="1" as="geometry">
            <mxPoint x="1089" y="-435.53" as="sourcePoint" />
            <mxPoint x="1219" y="-435.53" as="targetPoint" />
          </mxGeometry>
        </mxCell>
        <mxCell id="kMfSdA79UcX3Tjc2b9ED-22" value="" style="endArrow=classic;dashed=1;html=1;dashPattern=1 3;strokeWidth=2;rounded=0;entryX=0;entryY=0.5;entryDx=0;entryDy=0;endFill=1;" edge="1" parent="1">
          <mxGeometry width="50" height="50" relative="1" as="geometry">
            <mxPoint x="1090" y="-645.53" as="sourcePoint" />
            <mxPoint x="1220" y="-645.53" as="targetPoint" />
          </mxGeometry>
        </mxCell>
        <mxCell id="kMfSdA79UcX3Tjc2b9ED-26" value="&amp;lt;&amp;lt;include&amp;gt;&amp;gt;" style="edgeLabel;html=1;align=center;verticalAlign=middle;resizable=0;points=[];" vertex="1" connectable="0" parent="1">
          <mxGeometry x="1120" y="-720" as="geometry" />
        </mxCell>
        <mxCell id="kMfSdA79UcX3Tjc2b9ED-27" value="&amp;lt;&amp;lt;include&amp;gt;&amp;gt;" style="edgeLabel;html=1;align=center;verticalAlign=middle;resizable=0;points=[];" vertex="1" connectable="0" parent="1">
          <mxGeometry x="1120" y="-645" as="geometry" />
        </mxCell>
        <mxCell id="kMfSdA79UcX3Tjc2b9ED-28" value="&amp;lt;&amp;lt;include&amp;gt;&amp;gt;" style="edgeLabel;html=1;align=center;verticalAlign=middle;resizable=0;points=[];" vertex="1" connectable="0" parent="1">
          <mxGeometry x="1120" y="-580" as="geometry" />
        </mxCell>
        <mxCell id="kMfSdA79UcX3Tjc2b9ED-29" value="&amp;lt;&amp;lt;include&amp;gt;&amp;gt;" style="edgeLabel;html=1;align=center;verticalAlign=middle;resizable=0;points=[];" vertex="1" connectable="0" parent="1">
          <mxGeometry x="1120" y="-510" as="geometry" />
        </mxCell>
        <mxCell id="kMfSdA79UcX3Tjc2b9ED-30" value="&amp;lt;&amp;lt;include&amp;gt;&amp;gt;" style="edgeLabel;html=1;align=center;verticalAlign=middle;resizable=0;points=[];" vertex="1" connectable="0" parent="1">
          <mxGeometry x="1124" y="-450" as="geometry">
            <mxPoint x="-6" y="11" as="offset" />
          </mxGeometry>
        </mxCell>
        <mxCell id="kMfSdA79UcX3Tjc2b9ED-31" value="&amp;lt;&amp;lt;include&amp;gt;&amp;gt;" style="edgeLabel;html=1;align=center;verticalAlign=middle;resizable=0;points=[];" vertex="1" connectable="0" parent="1">
          <mxGeometry x="1120" y="-370" as="geometry" />
        </mxCell>
        <mxCell id="kMfSdA79UcX3Tjc2b9ED-51" value="Definir Tipo" style="ellipse;whiteSpace=wrap;html=1;" vertex="1" parent="1">
          <mxGeometry x="780" y="-605" width="110" height="50" as="geometry" />
        </mxCell>
        <mxCell id="kMfSdA79UcX3Tjc2b9ED-52" value="Definir Raça" style="ellipse;whiteSpace=wrap;html=1;" vertex="1" parent="1">
          <mxGeometry x="780" y="-530" width="110" height="50" as="geometry" />
        </mxCell>
        <mxCell id="kMfSdA79UcX3Tjc2b9ED-53" value="Definir Equipamento" style="ellipse;whiteSpace=wrap;html=1;" vertex="1" parent="1">
          <mxGeometry x="780" y="-460" width="110" height="50" as="geometry" />
        </mxCell>
        <mxCell id="kMfSdA79UcX3Tjc2b9ED-55" value="" style="endArrow=none;dashed=1;html=1;dashPattern=1 3;strokeWidth=2;rounded=0;entryX=0.5;entryY=1;entryDx=0;entryDy=0;exitX=1;exitY=0.5;exitDx=0;exitDy=0;endFill=1;startFill=1;startArrow=classic;" edge="1" parent="1" source="kMfSdA79UcX3Tjc2b9ED-53" target="kMfSdA79UcX3Tjc2b9ED-6">
          <mxGeometry width="50" height="50" relative="1" as="geometry">
            <mxPoint x="965" y="-420" as="sourcePoint" />
            <mxPoint x="1110" y="-610" as="targetPoint" />
            <Array as="points">
              <mxPoint x="965" y="-435" />
            </Array>
          </mxGeometry>
        </mxCell>
        <mxCell id="kMfSdA79UcX3Tjc2b9ED-56" value="" style="endArrow=none;dashed=1;html=1;dashPattern=1 3;strokeWidth=2;rounded=0;entryX=0.5;entryY=1;entryDx=0;entryDy=0;exitX=1;exitY=0.5;exitDx=0;exitDy=0;endFill=1;startFill=1;startArrow=classic;" edge="1" parent="1" source="kMfSdA79UcX3Tjc2b9ED-52" target="kMfSdA79UcX3Tjc2b9ED-6">
          <mxGeometry width="50" height="50" relative="1" as="geometry">
            <mxPoint x="930" y="-415" as="sourcePoint" />
            <mxPoint x="975" y="-640" as="targetPoint" />
            <Array as="points">
              <mxPoint x="965" y="-505" />
            </Array>
          </mxGeometry>
        </mxCell>
        <mxCell id="kMfSdA79UcX3Tjc2b9ED-57" value="" style="endArrow=none;dashed=1;html=1;dashPattern=1 3;strokeWidth=2;rounded=0;entryX=0.5;entryY=1;entryDx=0;entryDy=0;exitX=1;exitY=0.5;exitDx=0;exitDy=0;endFill=1;startFill=1;startArrow=classic;" edge="1" parent="1" source="kMfSdA79UcX3Tjc2b9ED-51" target="kMfSdA79UcX3Tjc2b9ED-6">
          <mxGeometry width="50" height="50" relative="1" as="geometry">
            <mxPoint x="930" y="-495" as="sourcePoint" />
            <mxPoint x="975" y="-640" as="targetPoint" />
            <Array as="points">
              <mxPoint x="965" y="-580" />
            </Array>
          </mxGeometry>
        </mxCell>
        <mxCell id="I0oyDSxSCbBd7wxzQqsA-23" value="" style="endArrow=none;dashed=1;html=1;dashPattern=1 3;strokeWidth=2;rounded=0;entryX=0.5;entryY=1;entryDx=0;entryDy=0;endFill=1;startFill=1;startArrow=classic;exitX=1;exitY=0.5;exitDx=0;exitDy=0;" edge="1" parent="1" source="I0oyDSxSCbBd7wxzQqsA-24" target="kMfSdA79UcX3Tjc2b9ED-6">
          <mxGeometry width="50" height="50" relative="1" as="geometry">
            <mxPoint x="900" y="-370" as="sourcePoint" />
            <mxPoint x="990" y="-626" as="targetPoint" />
            <Array as="points">
              <mxPoint x="930" y="-370" />
              <mxPoint x="965" y="-370" />
            </Array>
          </mxGeometry>
        </mxCell>
        <mxCell id="I0oyDSxSCbBd7wxzQqsA-24" value="Definir Classe" style="ellipse;whiteSpace=wrap;html=1;" vertex="1" parent="1">
          <mxGeometry x="780" y="-395" width="110" height="50" as="geometry" />
        </mxCell>
        <mxCell id="I0oyDSxSCbBd7wxzQqsA-25" value="&amp;lt;&amp;lt;include&amp;gt;&amp;gt;" style="edgeLabel;html=1;align=center;verticalAlign=middle;resizable=0;points=[];" connectable="0" vertex="1" parent="1">
          <mxGeometry x="929.9999999999986" y="-580" as="geometry" />
        </mxCell>
        <mxCell id="I0oyDSxSCbBd7wxzQqsA-26" value="&amp;lt;&amp;lt;include&amp;gt;&amp;gt;" style="edgeLabel;html=1;align=center;verticalAlign=middle;resizable=0;points=[];" connectable="0" vertex="1" parent="1">
          <mxGeometry x="929.9999999999986" y="-505" as="geometry" />
        </mxCell>
        <mxCell id="I0oyDSxSCbBd7wxzQqsA-27" value="&amp;lt;&amp;lt;include&amp;gt;&amp;gt;" style="edgeLabel;html=1;align=center;verticalAlign=middle;resizable=0;points=[];" connectable="0" vertex="1" parent="1">
          <mxGeometry x="929.9999999999986" y="-435" as="geometry" />
        </mxCell>
        <mxCell id="I0oyDSxSCbBd7wxzQqsA-28" value="&amp;lt;&amp;lt;include&amp;gt;&amp;gt;" style="edgeLabel;html=1;align=center;verticalAlign=middle;resizable=0;points=[];" connectable="0" vertex="1" parent="1">
          <mxGeometry x="929.9999999999986" y="-370" as="geometry" />
        </mxCell>
        <mxCell id="Jm3-XbXnsZgJe2frfgZL-2" value="" style="rounded=0;whiteSpace=wrap;html=1;dashed=1;fillColor=none;strokeColor=#6c8ebf;" vertex="1" parent="1">
          <mxGeometry x="260" y="-1040" width="390" height="180" as="geometry" />
        </mxCell>
        <mxCell id="Jm3-XbXnsZgJe2frfgZL-3" value="&lt;font style=&quot;color: rgb(0, 0, 204); font-size: 20px;&quot;&gt;Edição&lt;/font&gt;" style="text;html=1;align=center;verticalAlign=middle;resizable=0;points=[];autosize=1;strokeColor=none;fillColor=none;" vertex="1" parent="1">
          <mxGeometry x="413" y="-1080" width="80" height="40" as="geometry" />
        </mxCell>
        <mxCell id="Jm3-XbXnsZgJe2frfgZL-4" value="" style="rounded=0;whiteSpace=wrap;html=1;dashed=1;fillColor=none;strokeColor=#6c8ebf;" vertex="1" parent="1">
          <mxGeometry x="740" y="-885" width="640" height="565" as="geometry" />
        </mxCell>
        <mxCell id="Jm3-XbXnsZgJe2frfgZL-5" value="&lt;font style=&quot;color: rgb(0, 0, 204); font-size: 20px;&quot;&gt;Ficha&lt;/font&gt;" style="text;html=1;align=center;verticalAlign=middle;resizable=0;points=[];autosize=1;strokeColor=none;fillColor=none;" vertex="1" parent="1">
          <mxGeometry x="815" y="-917" width="70" height="40" as="geometry" />
        </mxCell>
        <mxCell id="Jm3-XbXnsZgJe2frfgZL-6" value="" style="rounded=0;whiteSpace=wrap;html=1;dashed=1;fillColor=none;strokeColor=#6c8ebf;" vertex="1" parent="1">
          <mxGeometry x="130" y="-520" width="290" height="225" as="geometry" />
        </mxCell>
        <mxCell id="Jm3-XbXnsZgJe2frfgZL-7" value="&lt;font style=&quot;color: rgb(0, 0, 204); font-size: 20px;&quot;&gt;Criação de grupos&lt;/font&gt;" style="text;html=1;align=center;verticalAlign=middle;resizable=0;points=[];autosize=1;strokeColor=none;fillColor=none;" vertex="1" parent="1">
          <mxGeometry x="150" y="-295" width="190" height="40" as="geometry" />
        </mxCell>
        <mxCell id="Jm3-XbXnsZgJe2frfgZL-8" value="" style="rounded=0;whiteSpace=wrap;html=1;dashed=1;fillColor=none;strokeColor=#6c8ebf;" vertex="1" parent="1">
          <mxGeometry x="280" y="-805" width="410" height="275" as="geometry" />
        </mxCell>
        <mxCell id="Jm3-XbXnsZgJe2frfgZL-9" value="&lt;font style=&quot;color: rgb(0, 0, 204); font-size: 20px;&quot;&gt;Configurar Batalha&lt;/font&gt;" style="text;html=1;align=center;verticalAlign=middle;resizable=0;points=[];autosize=1;strokeColor=none;fillColor=none;" vertex="1" parent="1">
          <mxGeometry x="440" y="-840" width="190" height="40" as="geometry" />
        </mxCell>
      </root>
    </mxGraphModel>
  </diagram>
</mxfile>
